<svg width="20" height="20" viewBox="0 0 20 20" fill="none" xmlns="http://www.w3.org/2000/svg">
<circle cx="10" cy="10" r="9.6" fill="white" stroke="black" stroke-width="0.8"/>
<g clip-path="url(#clip0_1220_35)">
<path d="M14.5833 6.25004C14.1843 6.53149 13.7425 6.74675 13.275 6.88754C13.024 6.599 12.6905 6.39449 12.3196 6.30168C11.9486 6.20886 11.5581 6.2322 11.2008 6.36856C10.8436 6.50492 10.5368 6.74771 10.322 7.06409C10.1073 7.38047 9.99483 7.75518 9.99996 8.13754V8.55421C9.26772 8.57319 8.54216 8.41079 7.88788 8.08148C7.2336 7.75216 6.67092 7.26614 6.24996 6.66671C6.24996 6.66671 4.58329 10.4167 8.33329 12.0834C7.47518 12.6659 6.45294 12.9579 5.41663 12.9167C9.16663 15 13.75 12.9167 13.75 8.12504C13.7496 8.00898 13.7384 7.8932 13.7166 7.77921C14.1419 7.35983 14.442 6.83034 14.5833 6.25004Z" stroke="black" stroke-width="0.8" stroke-linecap="round" stroke-linejoin="round"/>
</g>
<defs>
<clipPath id="clip0_1220_35">
<rect width="10" height="10" fill="white" transform="translate(5 5)"/>
</clipPath>
</defs>
</svg>
